<?xml version="1.0" encoding="utf-8"?>
<!-- Generator: Adobe Illustrator 15.0.0, SVG Export Plug-In . SVG Version: 6.00 Build 0)  -->
<!DOCTYPE svg PUBLIC "-//W3C//DTD SVG 1.1//EN" "http://www.w3.org/Graphics/SVG/1.1/DTD/svg11.dtd">
<svg version="1.1"
	 id="svg2" sodipodi:docname="git-freshly-made-github-repo.svg" inkscape:version="0.91 r13725" xmlns:inkscape="http://www.inkscape.org/namespaces/inkscape" xmlns:sodipodi="http://sodipodi.sourceforge.net/DTD/sodipodi-0.dtd" xmlns:rdf="http://www.w3.org/1999/02/22-rdf-syntax-ns#" xmlns:svg="http://www.w3.org/2000/svg" xmlns:cc="http://creativecommons.org/ns#" xmlns:dc="http://purl.org/dc/elements/1.1/"
	 xmlns="http://www.w3.org/2000/svg" xmlns:xlink="http://www.w3.org/1999/xlink" x="0px" y="0px" width="610px" height="500px"
	 viewBox="0 0 610 500" enable-background="new 0 0 610 500" xml:space="preserve">
<sodipodi:namedview  borderopacity="1" objecttolerance="10" bordercolor="#666666" pagecolor="#ffffff" gridtolerance="10" guidetolerance="10" inkscape:pageopacity="0" inkscape:pageshadow="2" fit-margin-top="0" inkscape:window-width="1362" inkscape:window-height="729" inkscape:cx="318.0608" showgrid="false" fit-margin-left="0" fit-margin-right="0" fit-margin-bottom="0" inkscape:zoom="0.6957385" inkscape:cy="263.49478" inkscape:window-x="0" inkscape:window-y="18" inkscape:window-maximized="0" inkscape:current-layer="svg2" id="namedview130">
	</sodipodi:namedview>
<g id="g3573" transform="translate(-4.1425018,-9)">
	<g id="g3564">
		<g id="g3490" transform="translate(0,250)">
			<rect id="rect3492" x="7" y="12" fill="#FFFFFF" stroke="#000000" stroke-miterlimit="10" width="603.785" height="244"/>
		</g>
		<g id="g3494" transform="translate(0,250)">
			<path id="path3496" inkscape:connector-curvature="0" fill="#B5B5B5" stroke="#FFFFFF" stroke-miterlimit="10" d="M598,63
				c0-8.284-6.716-15-15-15H198c-8.284,0-15,6.716-15,15v167c0,8.284,6.716,15,15,15h385c8.284,0,15-6.716,15-15V63z"/>
			<rect id="rect3498" x="197" y="59" fill="none" width="70" height="28"/>
			<text id="text3500" transform="matrix(1 0 0 1 196.9999 71.4199)" font-family="'Consolas'" font-size="18">.git</text>
		</g>
		<text id="text3502" transform="matrix(1 0 0 1 15.9999 278.707)" font-family="'Helvetica'" font-size="13.5">https://github.com/guacmaster/guac.git</text>
	</g>
	<g id="g3504">
		<g id="Layer_6">
			<rect id="rect5" x="7" y="12" fill="#FFFFFF" stroke="#000000" stroke-miterlimit="10" width="603.785" height="244"/>
		</g>
		<g id="g8">
			<path id="path10" inkscape:connector-curvature="0" fill="#B5B5B5" stroke="#FFFFFF" stroke-miterlimit="10" d="M598,63
				c0-8.284-6.716-15-15-15H198c-8.284,0-15,6.716-15,15v167c0,8.284,6.716,15,15,15h385c8.284,0,15-6.716,15-15V63z"/>
			<rect id="rect12" x="197" y="59" fill="none" width="70" height="28"/>
			<text id="text14" transform="matrix(1 0 0 1 196.9999 71.4199)" font-family="'Consolas'" font-size="18">.git</text>
		</g>
		<rect id="rect16" x="16" y="19" fill="none" width="195.585" height="24.449"/>
		<text id="text18" transform="matrix(1 0 0 1 15.9999 28.707)" font-family="'Helvetica'" font-size="13.5">~/guacmaster/guac</text>
		<g id="Layer_3">
			<g id="g37">
				
					<linearGradient id="path46_1_" gradientUnits="userSpaceOnUse" x1="253.642" y1="350.0146" x2="253.642" y2="294.7666" gradientTransform="matrix(1 0 0 -1 49.8574 474)">
					<stop  offset="0.0982" style="stop-color:#C4C4C4"/>
					<stop  offset="0.5326" style="stop-color:#686868"/>
					<stop  offset="1" style="stop-color:#000000"/>
				</linearGradient>
				<path id="path46" inkscape:connector-curvature="0" fill="url(#path46_1_)" stroke="#231F20" stroke-miterlimit="10" d="
					M253.453,178.205c0-9.264,22.404-16.777,50.047-16.777c27.643,0,50.045,7.514,50.045,16.777v1.029c0,0,0-2.115,0-3.117
					c0-1.007,0-35.745,0-35.745v0.394c0-9.27-22.402-16.78-50.045-16.78c-27.643,0-50.047,7.51-50.047,16.78v-0.394
					c0,0,0,34.519,0,35.733c0,1.205,0,3.129,0,3.129V178.205z"/>
				<g id="g48">
					<path id="path50" inkscape:connector-curvature="0" fill="#FFFFFF" stroke="#231F20" stroke-miterlimit="10" d="
						M353.545,140.373c0,0,0,34.738,0,35.745c0,1.002,0.355,3.117,0.355,3.117c0,9.27-22.758,16.779-50.4,16.779
						c-27.642,0-50.4-7.51-50.4-16.779c0,0,0.354-1.924,0.354-3.129c0-1.214,0-35.733,0-35.733c0,9.274,22.404,16.785,50.047,16.785
						C331.144,157.158,353.545,149.647,353.545,140.373L353.545,140.373z"/>
				</g>
			</g>
			<g id="g52">
				<polygon id="polygon54" fill="#FFFFFF" stroke="#000000" stroke-miterlimit="10" points="328.542,149.459 341.719,134.965 
					282.411,134.965 269.235,149.459 				"/>
				<line id="line56" fill="none" stroke="#70BF41" stroke-width="2" x1="282.411" y1="140.894" x2="331.165" y2="140.894"/>
			</g>
		</g>
		<g id="Layer_4">
			
				<linearGradient id="path66_1_" gradientUnits="userSpaceOnUse" x1="487.3183" y1="416.3418" x2="487.3183" y2="361.0879" gradientTransform="matrix(1 0 0 -1 49.8574 474)">
				<stop  offset="0.0982" style="stop-color:#C4C4C4"/>
				<stop  offset="0.5326" style="stop-color:#686868"/>
				<stop  offset="1" style="stop-color:#000000"/>
			</linearGradient>
			<path id="path66" inkscape:connector-curvature="0" fill="url(#path66_1_)" stroke="#231F20" stroke-miterlimit="10" d="
				M487.13,111.882c0-9.268,22.407-16.781,50.047-16.781c27.642,0,50.047,7.513,50.047,16.781v1.03c0,0,0-2.118,0-3.121
				s0-35.739,0-35.739v0.388c0-9.268-22.405-16.781-50.047-16.781c-27.64,0-50.047,7.513-50.047,16.781v-0.388
				c0,0,0,34.519,0,35.729c0,1.209,0,3.132,0,3.132V111.882z"/>
			<g id="g68">
				<path id="path70" inkscape:connector-curvature="0" fill="#FFFFFF" stroke="#231F20" stroke-miterlimit="10" d="
					M587.021,151.283c0,0,0,34.738,0,35.74s0.354,3.121,0.354,3.121c0,9.268-22.76,16.779-50.4,16.779
					c-27.64,0-50.398-7.512-50.398-16.779c0,0,0.353-1.924,0.353-3.133c0-1.209,0-35.729,0-35.729
					c0,9.268,22.407,16.781,50.048,16.781C564.614,168.064,587.021,160.551,587.021,151.283z"/>
			</g>
			<g id="g72">
				<path id="path74" inkscape:connector-curvature="0" fill="#FFFFFF" stroke="#231F20" stroke-miterlimit="10" d="
					M587.021,112.601c0,0,0,34.736,0,35.739c0,1.002,0.354,3.121,0.354,3.121c0,9.268-22.76,16.779-50.4,16.779
					c-27.64,0-50.398-7.512-50.398-16.779c0,0,0.353-1.923,0.353-3.132s0-35.728,0-35.728c0,9.268,22.407,16.78,50.048,16.78
					C564.614,129.381,587.021,121.869,587.021,112.601z"/>
			</g>
			<g id="g76">
				<path id="path78" inkscape:connector-curvature="0" fill="#FFFFFF" stroke="#231F20" stroke-miterlimit="10" d="M587.021,73.628
					c0,0,0,34.737,0,35.739s0.354,3.12,0.354,3.12c0,9.269-22.76,16.781-50.4,16.781c-27.64,0-50.398-7.513-50.398-16.781
					c0,0,0.353-1.922,0.353-3.131s0-35.728,0-35.728c0,9.268,22.407,16.78,50.048,16.78
					C564.614,90.409,587.021,82.896,587.021,73.628z"/>
			</g>
			<g id="g80">
				<polygon id="polygon82" fill="#FFFFFF" stroke="#000000" stroke-miterlimit="10" points="560.039,80.875 573.216,66.381 
					513.908,66.381 500.732,80.875 				"/>
				<line id="line84" fill="none" stroke="#70BF41" stroke-width="2" x1="513.908" y1="72.311" x2="562.662" y2="72.311"/>
			</g>
		</g>
		<g id="Layer_1">
			<g id="g87">
				<rect id="rect89" x="24" y="85" fill="#DCDEE0" width="100" height="128"/>
				<rect id="rect91" x="24" y="85" fill="none" stroke="#85888D" stroke-width="2" width="100" height="128"/>
				<line id="line93" fill="none" stroke="#000000" stroke-width="2" x1="37" y1="105" x2="111" y2="105"/>
				<line id="line95" fill="none" stroke="#000000" stroke-width="2" x1="37" y1="111" x2="111" y2="111"/>
				<line id="line97" fill="none" stroke="#000000" stroke-width="2" x1="37" y1="117" x2="111" y2="117"/>
				<line id="line99" fill="none" stroke="#70BF41" stroke-width="2" x1="37" y1="129" x2="111" y2="129"/>
			</g>
		</g>
		<g id="Layer_2">
			<g id="g102">
				<rect id="rect104" x="150.871" y="136.768" fill="#45BEEE" width="45.956" height="30.604"/>
				<polygon id="polygon106" fill="#45BEEE" points="234.02,151.163 193.467,121.571 193.467,181.695 				"/>
			</g>
			<rect id="rect108" x="164" y="146.069" fill="none" width="52.743" height="14"/>
			<text id="text110" transform="matrix(1 0 0 1 163.9999 154.3496)" font-family="'Consolas'" font-size="12">git add</text>
			<g id="g112">
				<rect id="rect114" x="381.251" y="136.768" fill="#45BEEE" width="45.956" height="30.604"/>
				<polygon id="polygon116" fill="#45BEEE" points="464.399,151.163 423.847,121.571 423.847,181.695 				"/>
			</g>
			<rect id="rect118" x="376.98" y="146.069" fill="none" width="85.542" height="14"/>
			<text id="text120" transform="matrix(1 0 0 1 386.7636 154.3496)" font-family="'Consolas'" font-size="12">git commit</text>
			<rect id="rect122" x="229" y="206" fill="none" width="147" height="17"/>
			<text id="text124" transform="matrix(1 0 0 1 269.4765 214.6279)" font-family="'Helvetica'" font-size="12">staging area</text>
			<rect id="rect126" x="464.785" y="219" fill="none" width="147" height="17"/>
			<text id="text128" transform="matrix(1 0 0 1 511.9413 227.6279)" font-family="'Helvetica'" font-size="12">repository</text>
		</g>
	</g>
</g>
</svg>
